<mxfile host="app.diagrams.net" modified="2024-03-05T20:16:15.320Z" agent="Mozilla/5.0 (X11; Linux x86_64; rv:123.0) Gecko/20100101 Firefox/123.0" etag="iMQhhTYRj8_O2_-QhR5c" version="24.0.1" type="device">
  <diagram id="C5RBs43oDa-KdzZeNtuy" name="Page-1">
    <mxGraphModel dx="1951" dy="858" grid="1" gridSize="10" guides="1" tooltips="1" connect="1" arrows="1" fold="1" page="1" pageScale="1" pageWidth="827" pageHeight="1169" math="0" shadow="0">
      <root>
        <mxCell id="WIyWlLk6GJQsqaUBKTNV-0" />
        <mxCell id="WIyWlLk6GJQsqaUBKTNV-1" parent="WIyWlLk6GJQsqaUBKTNV-0" />
        <mxCell id="h-Z2IbVYWgnOHZGRxgHi-0" value="Client" style="swimlane;fontStyle=0;childLayout=stackLayout;horizontal=1;startSize=26;fillColor=none;horizontalStack=0;resizeParent=1;resizeParentMax=0;resizeLast=0;collapsible=1;marginBottom=0;whiteSpace=wrap;html=1;" parent="WIyWlLk6GJQsqaUBKTNV-1" vertex="1">
          <mxGeometry x="203" y="120" width="140" height="52" as="geometry" />
        </mxCell>
        <mxCell id="h-Z2IbVYWgnOHZGRxgHi-1" value="name" style="text;strokeColor=none;fillColor=none;align=left;verticalAlign=top;spacingLeft=4;spacingRight=4;overflow=hidden;rotatable=0;points=[[0,0.5],[1,0.5]];portConstraint=eastwest;whiteSpace=wrap;html=1;" parent="h-Z2IbVYWgnOHZGRxgHi-0" vertex="1">
          <mxGeometry y="26" width="140" height="26" as="geometry" />
        </mxCell>
        <mxCell id="h-Z2IbVYWgnOHZGRxgHi-4" value="" style="endArrow=none;html=1;rounded=0;" parent="WIyWlLk6GJQsqaUBKTNV-1" source="h-Z2IbVYWgnOHZGRxgHi-0" target="h-Z2IbVYWgnOHZGRxgHi-5" edge="1">
          <mxGeometry width="50" height="50" relative="1" as="geometry">
            <mxPoint x="93" y="249" as="sourcePoint" />
            <mxPoint x="143" y="199" as="targetPoint" />
          </mxGeometry>
        </mxCell>
        <mxCell id="h-Z2IbVYWgnOHZGRxgHi-12" value="1" style="edgeLabel;html=1;align=center;verticalAlign=middle;resizable=0;points=[];" parent="h-Z2IbVYWgnOHZGRxgHi-4" vertex="1" connectable="0">
          <mxGeometry x="-0.881" y="2" relative="1" as="geometry">
            <mxPoint x="-15" y="5" as="offset" />
          </mxGeometry>
        </mxCell>
        <mxCell id="h-Z2IbVYWgnOHZGRxgHi-13" value="1..*" style="edgeLabel;html=1;align=center;verticalAlign=middle;resizable=0;points=[];" parent="h-Z2IbVYWgnOHZGRxgHi-4" vertex="1" connectable="0">
          <mxGeometry x="0.7952" y="2" relative="1" as="geometry">
            <mxPoint x="-15" y="-4" as="offset" />
          </mxGeometry>
        </mxCell>
        <mxCell id="h-Z2IbVYWgnOHZGRxgHi-5" value="order" style="swimlane;fontStyle=0;childLayout=stackLayout;horizontal=1;startSize=26;fillColor=none;horizontalStack=0;resizeParent=1;resizeParentMax=0;resizeLast=0;collapsible=1;marginBottom=0;whiteSpace=wrap;html=1;" parent="WIyWlLk6GJQsqaUBKTNV-1" vertex="1">
          <mxGeometry x="193" y="235" width="160" height="156" as="geometry" />
        </mxCell>
        <mxCell id="h-Z2IbVYWgnOHZGRxgHi-6" value="number&lt;br&gt;&lt;div&gt;&lt;br&gt;&lt;/div&gt;" style="text;strokeColor=none;fillColor=none;align=left;verticalAlign=top;spacingLeft=4;spacingRight=4;overflow=hidden;rotatable=0;points=[[0,0.5],[1,0.5]];portConstraint=eastwest;whiteSpace=wrap;html=1;" parent="h-Z2IbVYWgnOHZGRxgHi-5" vertex="1">
          <mxGeometry y="26" width="160" height="26" as="geometry" />
        </mxCell>
        <mxCell id="h-Z2IbVYWgnOHZGRxgHi-7" value="quantity" style="text;strokeColor=none;fillColor=none;align=left;verticalAlign=top;spacingLeft=4;spacingRight=4;overflow=hidden;rotatable=0;points=[[0,0.5],[1,0.5]];portConstraint=eastwest;whiteSpace=wrap;html=1;" parent="h-Z2IbVYWgnOHZGRxgHi-5" vertex="1">
          <mxGeometry y="52" width="160" height="26" as="geometry" />
        </mxCell>
        <mxCell id="h-Z2IbVYWgnOHZGRxgHi-8" value="due_date" style="text;strokeColor=none;fillColor=none;align=left;verticalAlign=top;spacingLeft=4;spacingRight=4;overflow=hidden;rotatable=0;points=[[0,0.5],[1,0.5]];portConstraint=eastwest;whiteSpace=wrap;html=1;" parent="h-Z2IbVYWgnOHZGRxgHi-5" vertex="1">
          <mxGeometry y="78" width="160" height="26" as="geometry" />
        </mxCell>
        <mxCell id="h-Z2IbVYWgnOHZGRxgHi-10" value="early_penalty" style="text;strokeColor=none;fillColor=none;align=left;verticalAlign=top;spacingLeft=4;spacingRight=4;overflow=hidden;rotatable=0;points=[[0,0.5],[1,0.5]];portConstraint=eastwest;whiteSpace=wrap;html=1;" parent="h-Z2IbVYWgnOHZGRxgHi-5" vertex="1">
          <mxGeometry y="104" width="160" height="26" as="geometry" />
        </mxCell>
        <mxCell id="h-Z2IbVYWgnOHZGRxgHi-9" value="late_penalty" style="text;strokeColor=none;fillColor=none;align=left;verticalAlign=top;spacingLeft=4;spacingRight=4;overflow=hidden;rotatable=0;points=[[0,0.5],[1,0.5]];portConstraint=eastwest;whiteSpace=wrap;html=1;" parent="h-Z2IbVYWgnOHZGRxgHi-5" vertex="1">
          <mxGeometry y="130" width="160" height="26" as="geometry" />
        </mxCell>
        <mxCell id="h-Z2IbVYWgnOHZGRxgHi-14" value="Piece" style="swimlane;fontStyle=0;childLayout=stackLayout;horizontal=1;startSize=26;fillColor=none;horizontalStack=0;resizeParent=1;resizeParentMax=0;resizeLast=0;collapsible=1;marginBottom=0;whiteSpace=wrap;html=1;" parent="WIyWlLk6GJQsqaUBKTNV-1" vertex="1">
          <mxGeometry x="679" y="620.0000000000001" width="120" height="74" as="geometry" />
        </mxCell>
        <mxCell id="h-Z2IbVYWgnOHZGRxgHi-15" value="name" style="text;strokeColor=none;fillColor=none;align=left;verticalAlign=top;spacingLeft=4;spacingRight=4;overflow=hidden;rotatable=0;points=[[0,0.5],[1,0.5]];portConstraint=eastwest;whiteSpace=wrap;html=1;" parent="h-Z2IbVYWgnOHZGRxgHi-14" vertex="1">
          <mxGeometry y="26" width="120" height="22" as="geometry" />
        </mxCell>
        <mxCell id="h-Z2IbVYWgnOHZGRxgHi-16" value="kind" style="text;strokeColor=none;fillColor=none;align=left;verticalAlign=top;spacingLeft=4;spacingRight=4;overflow=hidden;rotatable=0;points=[[0,0.5],[1,0.5]];portConstraint=eastwest;whiteSpace=wrap;html=1;" parent="h-Z2IbVYWgnOHZGRxgHi-14" vertex="1">
          <mxGeometry y="48" width="120" height="26" as="geometry" />
        </mxCell>
        <mxCell id="h-Z2IbVYWgnOHZGRxgHi-19" value="Recipe" style="swimlane;fontStyle=0;childLayout=stackLayout;horizontal=1;startSize=26;fillColor=none;horizontalStack=0;resizeParent=1;resizeParentMax=0;resizeLast=0;collapsible=1;marginBottom=0;whiteSpace=wrap;html=1;" parent="WIyWlLk6GJQsqaUBKTNV-1" vertex="1">
          <mxGeometry x="679" y="870" width="120" height="50" as="geometry" />
        </mxCell>
        <mxCell id="h-Z2IbVYWgnOHZGRxgHi-25" value="duration" style="text;strokeColor=none;fillColor=none;align=left;verticalAlign=top;spacingLeft=4;spacingRight=4;overflow=hidden;rotatable=0;points=[[0,0.5],[1,0.5]];portConstraint=eastwest;whiteSpace=wrap;html=1;" parent="h-Z2IbVYWgnOHZGRxgHi-19" vertex="1">
          <mxGeometry y="26" width="120" height="24" as="geometry" />
        </mxCell>
        <mxCell id="h-Z2IbVYWgnOHZGRxgHi-27" value="Tool" style="swimlane;fontStyle=0;childLayout=stackLayout;horizontal=1;startSize=26;fillColor=none;horizontalStack=0;resizeParent=1;resizeParentMax=0;resizeLast=0;collapsible=1;marginBottom=0;whiteSpace=wrap;html=1;" parent="WIyWlLk6GJQsqaUBKTNV-1" vertex="1">
          <mxGeometry x="679" y="991" width="120" height="52" as="geometry" />
        </mxCell>
        <mxCell id="h-Z2IbVYWgnOHZGRxgHi-28" value="code" style="text;strokeColor=none;fillColor=none;align=left;verticalAlign=top;spacingLeft=4;spacingRight=4;overflow=hidden;rotatable=0;points=[[0,0.5],[1,0.5]];portConstraint=eastwest;whiteSpace=wrap;html=1;" parent="h-Z2IbVYWgnOHZGRxgHi-27" vertex="1">
          <mxGeometry y="26" width="120" height="26" as="geometry" />
        </mxCell>
        <mxCell id="h-Z2IbVYWgnOHZGRxgHi-32" value="" style="endArrow=none;html=1;rounded=0;" parent="WIyWlLk6GJQsqaUBKTNV-1" source="h-Z2IbVYWgnOHZGRxgHi-19" target="h-Z2IbVYWgnOHZGRxgHi-27" edge="1">
          <mxGeometry width="50" height="50" relative="1" as="geometry">
            <mxPoint x="646" y="892" as="sourcePoint" />
            <mxPoint x="716" y="852" as="targetPoint" />
          </mxGeometry>
        </mxCell>
        <mxCell id="h-Z2IbVYWgnOHZGRxgHi-33" value="*" style="edgeLabel;html=1;align=center;verticalAlign=middle;resizable=0;points=[];" parent="h-Z2IbVYWgnOHZGRxgHi-32" vertex="1" connectable="0">
          <mxGeometry x="-0.86" y="-1" relative="1" as="geometry">
            <mxPoint x="-9" y="4" as="offset" />
          </mxGeometry>
        </mxCell>
        <mxCell id="h-Z2IbVYWgnOHZGRxgHi-34" value="1" style="edgeLabel;html=1;align=center;verticalAlign=middle;resizable=0;points=[];" parent="h-Z2IbVYWgnOHZGRxgHi-32" vertex="1" connectable="0">
          <mxGeometry x="0.8467" y="-1" relative="1" as="geometry">
            <mxPoint x="-9" y="-5" as="offset" />
          </mxGeometry>
        </mxCell>
        <mxCell id="h-Z2IbVYWgnOHZGRxgHi-54" value="Item" style="swimlane;fontStyle=0;childLayout=stackLayout;horizontal=1;startSize=26;fillColor=none;horizontalStack=0;resizeParent=1;resizeParentMax=0;resizeLast=0;collapsible=1;marginBottom=0;whiteSpace=wrap;html=1;" parent="WIyWlLk6GJQsqaUBKTNV-1" vertex="1">
          <mxGeometry x="193" y="606" width="160" height="102" as="geometry" />
        </mxCell>
        <mxCell id="TLY3jkLE9alik_qP_1Jx-26" value="status" style="text;strokeColor=none;fillColor=none;align=left;verticalAlign=top;spacingLeft=4;spacingRight=4;overflow=hidden;rotatable=0;points=[[0,0.5],[1,0.5]];portConstraint=eastwest;whiteSpace=wrap;html=1;" vertex="1" parent="h-Z2IbVYWgnOHZGRxgHi-54">
          <mxGeometry y="26" width="160" height="24" as="geometry" />
        </mxCell>
        <mxCell id="h-Z2IbVYWgnOHZGRxgHi-55" value="accummulated_cost" style="text;strokeColor=none;fillColor=none;align=left;verticalAlign=top;spacingLeft=4;spacingRight=4;overflow=hidden;rotatable=0;points=[[0,0.5],[1,0.5]];portConstraint=eastwest;whiteSpace=wrap;html=1;" parent="h-Z2IbVYWgnOHZGRxgHi-54" vertex="1">
          <mxGeometry y="50" width="160" height="26" as="geometry" />
        </mxCell>
        <mxCell id="h-Z2IbVYWgnOHZGRxgHi-199" value="lifetime_tracking_id" style="text;strokeColor=none;fillColor=none;align=left;verticalAlign=top;spacingLeft=4;spacingRight=4;overflow=hidden;rotatable=0;points=[[0,0.5],[1,0.5]];portConstraint=eastwest;whiteSpace=wrap;html=1;" parent="h-Z2IbVYWgnOHZGRxgHi-54" vertex="1">
          <mxGeometry y="76" width="160" height="26" as="geometry" />
        </mxCell>
        <mxCell id="h-Z2IbVYWgnOHZGRxgHi-89" value="" style="swimlane;fontStyle=0;childLayout=stackLayout;horizontal=1;startSize=26;fillColor=none;horizontalStack=0;resizeParent=1;resizeParentMax=0;resizeLast=0;collapsible=1;marginBottom=0;whiteSpace=wrap;html=1;" parent="WIyWlLk6GJQsqaUBKTNV-1" vertex="1">
          <mxGeometry x="149" y="870" width="120" height="52" as="geometry">
            <mxRectangle x="190" y="700" width="50" height="40" as="alternateBounds" />
          </mxGeometry>
        </mxCell>
        <mxCell id="h-Z2IbVYWgnOHZGRxgHi-86" value="transformation_date" style="text;strokeColor=none;fillColor=none;align=center;verticalAlign=top;spacingLeft=4;spacingRight=4;overflow=hidden;rotatable=0;points=[[0,0.5],[1,0.5]];portConstraint=eastwest;whiteSpace=wrap;html=1;" parent="h-Z2IbVYWgnOHZGRxgHi-89" vertex="1">
          <mxGeometry y="26" width="120" height="26" as="geometry" />
        </mxCell>
        <mxCell id="h-Z2IbVYWgnOHZGRxgHi-101" value="" style="endArrow=none;html=1;rounded=0;startArrow=classic;startFill=1;endFill=0;" parent="WIyWlLk6GJQsqaUBKTNV-1" source="h-Z2IbVYWgnOHZGRxgHi-14" target="h-Z2IbVYWgnOHZGRxgHi-54" edge="1">
          <mxGeometry width="50" height="50" relative="1" as="geometry">
            <mxPoint x="423" y="661" as="sourcePoint" />
            <mxPoint x="473" y="611" as="targetPoint" />
          </mxGeometry>
        </mxCell>
        <mxCell id="h-Z2IbVYWgnOHZGRxgHi-146" value="is instance of" style="edgeLabel;html=1;align=center;verticalAlign=middle;resizable=0;points=[];" parent="h-Z2IbVYWgnOHZGRxgHi-101" vertex="1" connectable="0">
          <mxGeometry x="0.0675" y="-1" relative="1" as="geometry">
            <mxPoint x="15" y="1" as="offset" />
          </mxGeometry>
        </mxCell>
        <mxCell id="h-Z2IbVYWgnOHZGRxgHi-103" value="Supplier" style="swimlane;fontStyle=0;childLayout=stackLayout;horizontal=1;startSize=26;fillColor=none;horizontalStack=0;resizeParent=1;resizeParentMax=0;resizeLast=0;collapsible=1;marginBottom=0;whiteSpace=wrap;html=1;" parent="WIyWlLk6GJQsqaUBKTNV-1" vertex="1">
          <mxGeometry x="659" y="391" width="160" height="130" as="geometry" />
        </mxCell>
        <mxCell id="h-Z2IbVYWgnOHZGRxgHi-104" value="name" style="text;strokeColor=none;fillColor=none;align=left;verticalAlign=top;spacingLeft=4;spacingRight=4;overflow=hidden;rotatable=0;points=[[0,0.5],[1,0.5]];portConstraint=eastwest;whiteSpace=wrap;html=1;" parent="h-Z2IbVYWgnOHZGRxgHi-103" vertex="1">
          <mxGeometry y="26" width="160" height="26" as="geometry" />
        </mxCell>
        <mxCell id="h-Z2IbVYWgnOHZGRxgHi-105" value="&lt;div&gt;unit_cost&lt;/div&gt;" style="text;strokeColor=none;fillColor=none;align=left;verticalAlign=top;spacingLeft=4;spacingRight=4;overflow=hidden;rotatable=0;points=[[0,0.5],[1,0.5]];portConstraint=eastwest;whiteSpace=wrap;html=1;" parent="h-Z2IbVYWgnOHZGRxgHi-103" vertex="1">
          <mxGeometry y="52" width="160" height="26" as="geometry" />
        </mxCell>
        <mxCell id="h-Z2IbVYWgnOHZGRxgHi-112" value="min_order_ammount" style="text;strokeColor=none;fillColor=none;align=left;verticalAlign=top;spacingLeft=4;spacingRight=4;overflow=hidden;rotatable=0;points=[[0,0.5],[1,0.5]];portConstraint=eastwest;whiteSpace=wrap;html=1;" parent="h-Z2IbVYWgnOHZGRxgHi-103" vertex="1">
          <mxGeometry y="78" width="160" height="26" as="geometry" />
        </mxCell>
        <mxCell id="h-Z2IbVYWgnOHZGRxgHi-106" value="delivery_time" style="text;strokeColor=none;fillColor=none;align=left;verticalAlign=top;spacingLeft=4;spacingRight=4;overflow=hidden;rotatable=0;points=[[0,0.5],[1,0.5]];portConstraint=eastwest;whiteSpace=wrap;html=1;" parent="h-Z2IbVYWgnOHZGRxgHi-103" vertex="1">
          <mxGeometry y="104" width="160" height="26" as="geometry" />
        </mxCell>
        <mxCell id="h-Z2IbVYWgnOHZGRxgHi-109" value="" style="endArrow=none;html=1;rounded=0;" parent="WIyWlLk6GJQsqaUBKTNV-1" source="h-Z2IbVYWgnOHZGRxgHi-14" target="h-Z2IbVYWgnOHZGRxgHi-103" edge="1">
          <mxGeometry width="50" height="50" relative="1" as="geometry">
            <mxPoint x="655" y="551" as="sourcePoint" />
            <mxPoint x="705" y="501" as="targetPoint" />
          </mxGeometry>
        </mxCell>
        <mxCell id="h-Z2IbVYWgnOHZGRxgHi-110" value="*" style="edgeLabel;html=1;align=center;verticalAlign=middle;resizable=0;points=[];" parent="h-Z2IbVYWgnOHZGRxgHi-109" vertex="1" connectable="0">
          <mxGeometry x="0.8109" relative="1" as="geometry">
            <mxPoint x="6" as="offset" />
          </mxGeometry>
        </mxCell>
        <mxCell id="h-Z2IbVYWgnOHZGRxgHi-111" value="1" style="edgeLabel;html=1;align=center;verticalAlign=middle;resizable=0;points=[];" parent="h-Z2IbVYWgnOHZGRxgHi-109" vertex="1" connectable="0">
          <mxGeometry x="-0.7296" y="1" relative="1" as="geometry">
            <mxPoint x="7" as="offset" />
          </mxGeometry>
        </mxCell>
        <mxCell id="h-Z2IbVYWgnOHZGRxgHi-113" value="shippment" style="swimlane;fontStyle=0;childLayout=stackLayout;horizontal=1;startSize=26;fillColor=none;horizontalStack=0;resizeParent=1;resizeParentMax=0;resizeLast=0;collapsible=1;marginBottom=0;whiteSpace=wrap;html=1;" parent="WIyWlLk6GJQsqaUBKTNV-1" vertex="1">
          <mxGeometry x="429" y="404" width="160" height="104" as="geometry" />
        </mxCell>
        <mxCell id="h-Z2IbVYWgnOHZGRxgHi-114" value="quantity" style="text;strokeColor=none;fillColor=none;align=left;verticalAlign=top;spacingLeft=4;spacingRight=4;overflow=hidden;rotatable=0;points=[[0,0.5],[1,0.5]];portConstraint=eastwest;whiteSpace=wrap;html=1;" parent="h-Z2IbVYWgnOHZGRxgHi-113" vertex="1">
          <mxGeometry y="26" width="160" height="26" as="geometry" />
        </mxCell>
        <mxCell id="h-Z2IbVYWgnOHZGRxgHi-115" value="cost" style="text;strokeColor=none;fillColor=none;align=left;verticalAlign=top;spacingLeft=4;spacingRight=4;overflow=hidden;rotatable=0;points=[[0,0.5],[1,0.5]];portConstraint=eastwest;whiteSpace=wrap;html=1;" parent="h-Z2IbVYWgnOHZGRxgHi-113" vertex="1">
          <mxGeometry y="52" width="160" height="26" as="geometry" />
        </mxCell>
        <mxCell id="h-Z2IbVYWgnOHZGRxgHi-200" value="expected_arrival_date" style="text;strokeColor=none;fillColor=none;align=left;verticalAlign=top;spacingLeft=4;spacingRight=4;overflow=hidden;rotatable=0;points=[[0,0.5],[1,0.5]];portConstraint=eastwest;whiteSpace=wrap;html=1;" parent="h-Z2IbVYWgnOHZGRxgHi-113" vertex="1">
          <mxGeometry y="78" width="160" height="26" as="geometry" />
        </mxCell>
        <mxCell id="h-Z2IbVYWgnOHZGRxgHi-119" value="" style="endArrow=none;html=1;rounded=0;" parent="WIyWlLk6GJQsqaUBKTNV-1" source="h-Z2IbVYWgnOHZGRxgHi-113" target="h-Z2IbVYWgnOHZGRxgHi-103" edge="1">
          <mxGeometry width="50" height="50" relative="1" as="geometry">
            <mxPoint x="599" y="551" as="sourcePoint" />
            <mxPoint x="649" y="501" as="targetPoint" />
          </mxGeometry>
        </mxCell>
        <mxCell id="h-Z2IbVYWgnOHZGRxgHi-120" value="*" style="edgeLabel;html=1;align=center;verticalAlign=middle;resizable=0;points=[];" parent="h-Z2IbVYWgnOHZGRxgHi-119" vertex="1" connectable="0">
          <mxGeometry x="-0.8292" relative="1" as="geometry">
            <mxPoint x="4" y="14" as="offset" />
          </mxGeometry>
        </mxCell>
        <mxCell id="TLY3jkLE9alik_qP_1Jx-4" value="1" style="edgeLabel;html=1;align=center;verticalAlign=middle;resizable=0;points=[];" vertex="1" connectable="0" parent="h-Z2IbVYWgnOHZGRxgHi-119">
          <mxGeometry x="-0.8292" relative="1" as="geometry">
            <mxPoint x="55" y="14" as="offset" />
          </mxGeometry>
        </mxCell>
        <mxCell id="h-Z2IbVYWgnOHZGRxgHi-122" value="" style="endArrow=none;html=1;rounded=0;entryX=0.25;entryY=1;entryDx=0;entryDy=0;exitX=0.75;exitY=0;exitDx=0;exitDy=0;" parent="WIyWlLk6GJQsqaUBKTNV-1" source="h-Z2IbVYWgnOHZGRxgHi-54" target="h-Z2IbVYWgnOHZGRxgHi-113" edge="1">
          <mxGeometry width="50" height="50" relative="1" as="geometry">
            <mxPoint x="499" y="571" as="sourcePoint" />
            <mxPoint x="451" y="507" as="targetPoint" />
          </mxGeometry>
        </mxCell>
        <mxCell id="h-Z2IbVYWgnOHZGRxgHi-137" value="1" style="edgeLabel;html=1;align=center;verticalAlign=middle;resizable=0;points=[];" parent="h-Z2IbVYWgnOHZGRxgHi-122" vertex="1" connectable="0">
          <mxGeometry x="0.856" y="1" relative="1" as="geometry">
            <mxPoint x="-27" y="2" as="offset" />
          </mxGeometry>
        </mxCell>
        <mxCell id="h-Z2IbVYWgnOHZGRxgHi-138" value="*" style="edgeLabel;html=1;align=center;verticalAlign=middle;resizable=0;points=[];" parent="h-Z2IbVYWgnOHZGRxgHi-122" vertex="1" connectable="0">
          <mxGeometry x="-0.8678" y="1" relative="1" as="geometry">
            <mxPoint x="-3" y="-10" as="offset" />
          </mxGeometry>
        </mxCell>
        <mxCell id="h-Z2IbVYWgnOHZGRxgHi-124" value="Warehouse" style="swimlane;fontStyle=0;childLayout=stackLayout;horizontal=1;startSize=26;fillColor=none;horizontalStack=0;resizeParent=1;resizeParentMax=0;resizeLast=0;collapsible=1;marginBottom=0;whiteSpace=wrap;html=1;" parent="WIyWlLk6GJQsqaUBKTNV-1" vertex="1">
          <mxGeometry x="9" y="760" width="140" height="78" as="geometry" />
        </mxCell>
        <mxCell id="h-Z2IbVYWgnOHZGRxgHi-125" value="name" style="text;strokeColor=none;fillColor=none;align=left;verticalAlign=top;spacingLeft=4;spacingRight=4;overflow=hidden;rotatable=0;points=[[0,0.5],[1,0.5]];portConstraint=eastwest;whiteSpace=wrap;html=1;" parent="h-Z2IbVYWgnOHZGRxgHi-124" vertex="1">
          <mxGeometry y="26" width="140" height="26" as="geometry" />
        </mxCell>
        <mxCell id="h-Z2IbVYWgnOHZGRxgHi-126" value="capacity" style="text;strokeColor=none;fillColor=none;align=left;verticalAlign=top;spacingLeft=4;spacingRight=4;overflow=hidden;rotatable=0;points=[[0,0.5],[1,0.5]];portConstraint=eastwest;whiteSpace=wrap;html=1;" parent="h-Z2IbVYWgnOHZGRxgHi-124" vertex="1">
          <mxGeometry y="52" width="140" height="26" as="geometry" />
        </mxCell>
        <mxCell id="h-Z2IbVYWgnOHZGRxgHi-128" value="" style="endArrow=none;html=1;rounded=0;exitX=1;exitY=0.5;exitDx=0;exitDy=0;entryX=0.25;entryY=1;entryDx=0;entryDy=0;" parent="WIyWlLk6GJQsqaUBKTNV-1" source="h-Z2IbVYWgnOHZGRxgHi-125" target="h-Z2IbVYWgnOHZGRxgHi-54" edge="1">
          <mxGeometry width="50" height="50" relative="1" as="geometry">
            <mxPoint x="189" y="781" as="sourcePoint" />
            <mxPoint x="281" y="697" as="targetPoint" />
          </mxGeometry>
        </mxCell>
        <mxCell id="h-Z2IbVYWgnOHZGRxgHi-129" value="*" style="edgeLabel;html=1;align=center;verticalAlign=middle;resizable=0;points=[];" parent="h-Z2IbVYWgnOHZGRxgHi-128" vertex="1" connectable="0">
          <mxGeometry x="0.8658" y="-1" relative="1" as="geometry">
            <mxPoint x="3" y="8" as="offset" />
          </mxGeometry>
        </mxCell>
        <mxCell id="h-Z2IbVYWgnOHZGRxgHi-130" value="0..1" style="edgeLabel;html=1;align=center;verticalAlign=middle;resizable=0;points=[];" parent="h-Z2IbVYWgnOHZGRxgHi-128" vertex="1" connectable="0">
          <mxGeometry x="-0.8615" relative="1" as="geometry">
            <mxPoint x="6" y="13" as="offset" />
          </mxGeometry>
        </mxCell>
        <mxCell id="h-Z2IbVYWgnOHZGRxgHi-132" value="located at" style="edgeLabel;html=1;align=center;verticalAlign=middle;resizable=0;points=[];" parent="h-Z2IbVYWgnOHZGRxgHi-128" vertex="1" connectable="0">
          <mxGeometry x="0.0264" relative="1" as="geometry">
            <mxPoint x="-2" y="-2" as="offset" />
          </mxGeometry>
        </mxCell>
        <mxCell id="h-Z2IbVYWgnOHZGRxgHi-142" value="" style="swimlane;fontStyle=0;childLayout=stackLayout;horizontal=1;startSize=26;fillColor=none;horizontalStack=0;resizeParent=1;resizeParentMax=0;resizeLast=0;collapsible=1;marginBottom=0;whiteSpace=wrap;html=1;" parent="WIyWlLk6GJQsqaUBKTNV-1" vertex="1">
          <mxGeometry x="447" y="540" width="124" height="52" as="geometry">
            <mxRectangle x="190" y="700" width="50" height="40" as="alternateBounds" />
          </mxGeometry>
        </mxCell>
        <mxCell id="h-Z2IbVYWgnOHZGRxgHi-141" value="arrival_date" style="text;strokeColor=none;fillColor=none;align=center;verticalAlign=top;spacingLeft=4;spacingRight=4;overflow=hidden;rotatable=0;points=[[0,0.5],[1,0.5]];portConstraint=eastwest;whiteSpace=wrap;html=1;" parent="h-Z2IbVYWgnOHZGRxgHi-142" vertex="1">
          <mxGeometry y="26" width="124" height="26" as="geometry" />
        </mxCell>
        <mxCell id="h-Z2IbVYWgnOHZGRxgHi-148" value="Delivery" style="swimlane;fontStyle=0;childLayout=stackLayout;horizontal=1;startSize=26;fillColor=none;horizontalStack=0;resizeParent=1;resizeParentMax=0;resizeLast=0;collapsible=1;marginBottom=0;whiteSpace=wrap;html=1;" parent="WIyWlLk6GJQsqaUBKTNV-1" vertex="1">
          <mxGeometry x="193" y="461" width="160" height="74" as="geometry" />
        </mxCell>
        <mxCell id="h-Z2IbVYWgnOHZGRxgHi-149" value="status" style="text;strokeColor=none;fillColor=none;align=left;verticalAlign=top;spacingLeft=4;spacingRight=4;overflow=hidden;rotatable=0;points=[[0,0.5],[1,0.5]];portConstraint=eastwest;whiteSpace=wrap;html=1;" parent="h-Z2IbVYWgnOHZGRxgHi-148" vertex="1">
          <mxGeometry y="26" width="160" height="24" as="geometry" />
        </mxCell>
        <mxCell id="TLY3jkLE9alik_qP_1Jx-5" value="completion_date" style="text;strokeColor=none;fillColor=none;align=left;verticalAlign=top;spacingLeft=4;spacingRight=4;overflow=hidden;rotatable=0;points=[[0,0.5],[1,0.5]];portConstraint=eastwest;whiteSpace=wrap;html=1;" vertex="1" parent="h-Z2IbVYWgnOHZGRxgHi-148">
          <mxGeometry y="50" width="160" height="24" as="geometry" />
        </mxCell>
        <mxCell id="h-Z2IbVYWgnOHZGRxgHi-157" value="" style="endArrow=none;html=1;rounded=0;exitX=1;exitY=0.5;exitDx=0;exitDy=0;entryX=1;entryY=1;entryDx=0;entryDy=0;" parent="WIyWlLk6GJQsqaUBKTNV-1" source="h-Z2IbVYWgnOHZGRxgHi-181" target="h-Z2IbVYWgnOHZGRxgHi-54" edge="1">
          <mxGeometry width="50" height="50" relative="1" as="geometry">
            <mxPoint x="310" y="821" as="sourcePoint" />
            <mxPoint x="370" y="751" as="targetPoint" />
          </mxGeometry>
        </mxCell>
        <mxCell id="h-Z2IbVYWgnOHZGRxgHi-167" value="consumed by" style="edgeLabel;html=1;align=center;verticalAlign=middle;resizable=0;points=[];" parent="h-Z2IbVYWgnOHZGRxgHi-157" vertex="1" connectable="0">
          <mxGeometry x="0.1854" y="1" relative="1" as="geometry">
            <mxPoint x="-2" as="offset" />
          </mxGeometry>
        </mxCell>
        <mxCell id="TLY3jkLE9alik_qP_1Jx-0" value="1" style="edgeLabel;html=1;align=center;verticalAlign=middle;resizable=0;points=[];" vertex="1" connectable="0" parent="h-Z2IbVYWgnOHZGRxgHi-157">
          <mxGeometry x="0.8718" relative="1" as="geometry">
            <mxPoint x="7" as="offset" />
          </mxGeometry>
        </mxCell>
        <mxCell id="TLY3jkLE9alik_qP_1Jx-1" value="1" style="edgeLabel;html=1;align=center;verticalAlign=middle;resizable=0;points=[];" vertex="1" connectable="0" parent="h-Z2IbVYWgnOHZGRxgHi-157">
          <mxGeometry x="0.8718" relative="1" as="geometry">
            <mxPoint x="-33" as="offset" />
          </mxGeometry>
        </mxCell>
        <mxCell id="h-Z2IbVYWgnOHZGRxgHi-161" value="" style="endArrow=none;html=1;rounded=0;exitX=0;exitY=0.5;exitDx=0;exitDy=0;entryX=0.75;entryY=1;entryDx=0;entryDy=0;" parent="WIyWlLk6GJQsqaUBKTNV-1" source="h-Z2IbVYWgnOHZGRxgHi-181" target="h-Z2IbVYWgnOHZGRxgHi-54" edge="1">
          <mxGeometry width="50" height="50" relative="1" as="geometry">
            <mxPoint x="485" y="883" as="sourcePoint" />
            <mxPoint x="330" y="741" as="targetPoint" />
          </mxGeometry>
        </mxCell>
        <mxCell id="h-Z2IbVYWgnOHZGRxgHi-168" value="produced by" style="edgeLabel;html=1;align=center;verticalAlign=middle;resizable=0;points=[];" parent="h-Z2IbVYWgnOHZGRxgHi-161" vertex="1" connectable="0">
          <mxGeometry x="0.1611" y="2" relative="1" as="geometry">
            <mxPoint x="2" y="21" as="offset" />
          </mxGeometry>
        </mxCell>
        <mxCell id="h-Z2IbVYWgnOHZGRxgHi-170" value="" style="endArrow=none;html=1;rounded=0;exitX=0.25;exitY=0;exitDx=0;exitDy=0;entryX=0.25;entryY=1;entryDx=0;entryDy=0;" parent="WIyWlLk6GJQsqaUBKTNV-1" source="h-Z2IbVYWgnOHZGRxgHi-19" target="h-Z2IbVYWgnOHZGRxgHi-14" edge="1">
          <mxGeometry width="50" height="50" relative="1" as="geometry">
            <mxPoint x="640" y="781" as="sourcePoint" />
            <mxPoint x="700" y="720" as="targetPoint" />
          </mxGeometry>
        </mxCell>
        <mxCell id="h-Z2IbVYWgnOHZGRxgHi-172" value="needs" style="edgeLabel;html=1;align=center;verticalAlign=middle;resizable=0;points=[];" parent="h-Z2IbVYWgnOHZGRxgHi-170" vertex="1" connectable="0">
          <mxGeometry x="0.0327" y="1" relative="1" as="geometry">
            <mxPoint x="2" y="-7" as="offset" />
          </mxGeometry>
        </mxCell>
        <mxCell id="h-Z2IbVYWgnOHZGRxgHi-178" value="*" style="edgeLabel;html=1;align=center;verticalAlign=middle;resizable=0;points=[];" parent="h-Z2IbVYWgnOHZGRxgHi-170" vertex="1" connectable="0">
          <mxGeometry x="-0.8151" relative="1" as="geometry">
            <mxPoint x="10" y="6" as="offset" />
          </mxGeometry>
        </mxCell>
        <mxCell id="h-Z2IbVYWgnOHZGRxgHi-171" value="" style="endArrow=none;html=1;rounded=0;exitX=0.75;exitY=0;exitDx=0;exitDy=0;entryX=0.75;entryY=1;entryDx=0;entryDy=0;" parent="WIyWlLk6GJQsqaUBKTNV-1" source="h-Z2IbVYWgnOHZGRxgHi-19" target="h-Z2IbVYWgnOHZGRxgHi-14" edge="1">
          <mxGeometry width="50" height="50" relative="1" as="geometry">
            <mxPoint x="599" y="880" as="sourcePoint" />
            <mxPoint x="780" y="720" as="targetPoint" />
          </mxGeometry>
        </mxCell>
        <mxCell id="h-Z2IbVYWgnOHZGRxgHi-173" value="creates" style="edgeLabel;html=1;align=center;verticalAlign=middle;resizable=0;points=[];" parent="h-Z2IbVYWgnOHZGRxgHi-171" vertex="1" connectable="0">
          <mxGeometry x="-0.0128" y="2" relative="1" as="geometry">
            <mxPoint x="3" y="-11" as="offset" />
          </mxGeometry>
        </mxCell>
        <mxCell id="h-Z2IbVYWgnOHZGRxgHi-176" value="1" style="edgeLabel;html=1;align=center;verticalAlign=middle;resizable=0;points=[];" parent="h-Z2IbVYWgnOHZGRxgHi-171" vertex="1" connectable="0">
          <mxGeometry x="0.8692" y="1" relative="1" as="geometry">
            <mxPoint x="12" as="offset" />
          </mxGeometry>
        </mxCell>
        <mxCell id="h-Z2IbVYWgnOHZGRxgHi-179" value="*" style="edgeLabel;html=1;align=center;verticalAlign=middle;resizable=0;points=[];" parent="h-Z2IbVYWgnOHZGRxgHi-171" vertex="1" connectable="0">
          <mxGeometry x="-0.7742" y="-1" relative="1" as="geometry">
            <mxPoint x="12" y="10" as="offset" />
          </mxGeometry>
        </mxCell>
        <mxCell id="TLY3jkLE9alik_qP_1Jx-3" value="1" style="edgeLabel;html=1;align=center;verticalAlign=middle;resizable=0;points=[];" vertex="1" connectable="0" parent="h-Z2IbVYWgnOHZGRxgHi-171">
          <mxGeometry x="0.8692" y="1" relative="1" as="geometry">
            <mxPoint x="-48" as="offset" />
          </mxGeometry>
        </mxCell>
        <mxCell id="h-Z2IbVYWgnOHZGRxgHi-181" value="" style="rhombus;whiteSpace=wrap;html=1;" parent="WIyWlLk6GJQsqaUBKTNV-1" vertex="1">
          <mxGeometry x="313" y="876" width="40" height="40" as="geometry" />
        </mxCell>
        <mxCell id="h-Z2IbVYWgnOHZGRxgHi-182" value="" style="endArrow=none;html=1;rounded=0;exitX=1;exitY=0.5;exitDx=0;exitDy=0;" parent="WIyWlLk6GJQsqaUBKTNV-1" source="h-Z2IbVYWgnOHZGRxgHi-181" target="h-Z2IbVYWgnOHZGRxgHi-19" edge="1">
          <mxGeometry width="50" height="50" relative="1" as="geometry">
            <mxPoint x="470" y="891" as="sourcePoint" />
            <mxPoint x="520" y="841" as="targetPoint" />
          </mxGeometry>
        </mxCell>
        <mxCell id="h-Z2IbVYWgnOHZGRxgHi-185" value="1" style="edgeLabel;html=1;align=center;verticalAlign=middle;resizable=0;points=[];" parent="h-Z2IbVYWgnOHZGRxgHi-182" vertex="1" connectable="0">
          <mxGeometry x="0.8787" y="-1" relative="1" as="geometry">
            <mxPoint x="11" y="14" as="offset" />
          </mxGeometry>
        </mxCell>
        <mxCell id="h-Z2IbVYWgnOHZGRxgHi-196" value="follows" style="edgeLabel;html=1;align=center;verticalAlign=middle;resizable=0;points=[];" parent="h-Z2IbVYWgnOHZGRxgHi-182" vertex="1" connectable="0">
          <mxGeometry x="-0.1205" relative="1" as="geometry">
            <mxPoint x="24" as="offset" />
          </mxGeometry>
        </mxCell>
        <mxCell id="h-Z2IbVYWgnOHZGRxgHi-186" value="ItemTransformation" style="swimlane;fontStyle=0;childLayout=stackLayout;horizontal=1;startSize=26;fillColor=none;horizontalStack=0;resizeParent=1;resizeParentMax=0;resizeLast=0;collapsible=1;marginBottom=0;whiteSpace=wrap;html=1;" parent="WIyWlLk6GJQsqaUBKTNV-1" vertex="1">
          <mxGeometry x="265.25" y="960" width="135.5" height="78" as="geometry" />
        </mxCell>
        <mxCell id="h-Z2IbVYWgnOHZGRxgHi-187" value="status" style="text;strokeColor=none;fillColor=none;align=left;verticalAlign=top;spacingLeft=4;spacingRight=4;overflow=hidden;rotatable=0;points=[[0,0.5],[1,0.5]];portConstraint=eastwest;whiteSpace=wrap;html=1;" parent="h-Z2IbVYWgnOHZGRxgHi-186" vertex="1">
          <mxGeometry y="26" width="135.5" height="26" as="geometry" />
        </mxCell>
        <mxCell id="h-Z2IbVYWgnOHZGRxgHi-206" value="scheduled_date" style="text;strokeColor=none;fillColor=none;align=left;verticalAlign=top;spacingLeft=4;spacingRight=4;overflow=hidden;rotatable=0;points=[[0,0.5],[1,0.5]];portConstraint=eastwest;whiteSpace=wrap;html=1;" parent="h-Z2IbVYWgnOHZGRxgHi-186" vertex="1">
          <mxGeometry y="52" width="135.5" height="26" as="geometry" />
        </mxCell>
        <mxCell id="h-Z2IbVYWgnOHZGRxgHi-191" value="" style="endArrow=none;html=1;rounded=0;exitX=0.5;exitY=1;exitDx=0;exitDy=0;" parent="WIyWlLk6GJQsqaUBKTNV-1" source="h-Z2IbVYWgnOHZGRxgHi-181" target="h-Z2IbVYWgnOHZGRxgHi-186" edge="1">
          <mxGeometry width="50" height="50" relative="1" as="geometry">
            <mxPoint x="330" y="921" as="sourcePoint" />
            <mxPoint x="380" y="871" as="targetPoint" />
          </mxGeometry>
        </mxCell>
        <mxCell id="h-Z2IbVYWgnOHZGRxgHi-193" value="*" style="edgeLabel;html=1;align=center;verticalAlign=middle;resizable=0;points=[];" parent="h-Z2IbVYWgnOHZGRxgHi-191" vertex="1" connectable="0">
          <mxGeometry x="-0.7708" relative="1" as="geometry">
            <mxPoint x="10" y="29" as="offset" />
          </mxGeometry>
        </mxCell>
        <mxCell id="h-Z2IbVYWgnOHZGRxgHi-195" value="" style="endArrow=none;dashed=1;html=1;dashPattern=1 3;strokeWidth=2;rounded=0;" parent="WIyWlLk6GJQsqaUBKTNV-1" source="h-Z2IbVYWgnOHZGRxgHi-89" target="h-Z2IbVYWgnOHZGRxgHi-181" edge="1">
          <mxGeometry width="50" height="50" relative="1" as="geometry">
            <mxPoint x="270" y="931" as="sourcePoint" />
            <mxPoint x="320" y="881" as="targetPoint" />
          </mxGeometry>
        </mxCell>
        <mxCell id="h-Z2IbVYWgnOHZGRxgHi-201" value="" style="endArrow=none;dashed=1;html=1;dashPattern=1 3;strokeWidth=2;rounded=0;entryX=0;entryY=0.5;entryDx=0;entryDy=0;" parent="WIyWlLk6GJQsqaUBKTNV-1" target="h-Z2IbVYWgnOHZGRxgHi-142" edge="1">
          <mxGeometry width="50" height="50" relative="1" as="geometry">
            <mxPoint x="391" y="566" as="sourcePoint" />
            <mxPoint x="430" y="570" as="targetPoint" />
          </mxGeometry>
        </mxCell>
        <mxCell id="h-Z2IbVYWgnOHZGRxgHi-208" value="" style="endArrow=none;html=1;rounded=0;entryX=0.5;entryY=1;entryDx=0;entryDy=0;exitX=0.5;exitY=0;exitDx=0;exitDy=0;" parent="WIyWlLk6GJQsqaUBKTNV-1" source="h-Z2IbVYWgnOHZGRxgHi-54" target="h-Z2IbVYWgnOHZGRxgHi-148" edge="1">
          <mxGeometry width="50" height="50" relative="1" as="geometry">
            <mxPoint x="253" y="437" as="sourcePoint" />
            <mxPoint x="191" y="317" as="targetPoint" />
          </mxGeometry>
        </mxCell>
        <mxCell id="h-Z2IbVYWgnOHZGRxgHi-212" value="1" style="edgeLabel;html=1;align=center;verticalAlign=middle;resizable=0;points=[];" parent="h-Z2IbVYWgnOHZGRxgHi-208" vertex="1" connectable="0">
          <mxGeometry x="0.8432" y="2" relative="1" as="geometry">
            <mxPoint x="-11" y="3" as="offset" />
          </mxGeometry>
        </mxCell>
        <mxCell id="h-Z2IbVYWgnOHZGRxgHi-214" value="1..*" style="edgeLabel;html=1;align=center;verticalAlign=middle;resizable=0;points=[];" parent="h-Z2IbVYWgnOHZGRxgHi-208" vertex="1" connectable="0">
          <mxGeometry x="-0.7882" y="1" relative="1" as="geometry">
            <mxPoint x="-12" y="-9" as="offset" />
          </mxGeometry>
        </mxCell>
        <mxCell id="h-Z2IbVYWgnOHZGRxgHi-216" value="" style="endArrow=none;html=1;rounded=0;entryX=0.5;entryY=0;entryDx=0;entryDy=0;" parent="WIyWlLk6GJQsqaUBKTNV-1" source="h-Z2IbVYWgnOHZGRxgHi-5" target="h-Z2IbVYWgnOHZGRxgHi-148" edge="1">
          <mxGeometry width="50" height="50" relative="1" as="geometry">
            <mxPoint x="344.5" y="451" as="sourcePoint" />
            <mxPoint x="394.5" y="401" as="targetPoint" />
          </mxGeometry>
        </mxCell>
        <mxCell id="h-Z2IbVYWgnOHZGRxgHi-217" value="1" style="edgeLabel;html=1;align=center;verticalAlign=middle;resizable=0;points=[];" parent="h-Z2IbVYWgnOHZGRxgHi-216" vertex="1" connectable="0">
          <mxGeometry x="0.8308" relative="1" as="geometry">
            <mxPoint x="7" y="-55" as="offset" />
          </mxGeometry>
        </mxCell>
        <mxCell id="h-Z2IbVYWgnOHZGRxgHi-218" value="1" style="edgeLabel;html=1;align=center;verticalAlign=middle;resizable=0;points=[];" parent="h-Z2IbVYWgnOHZGRxgHi-216" vertex="1" connectable="0">
          <mxGeometry x="-0.7202" relative="1" as="geometry">
            <mxPoint x="7" y="49" as="offset" />
          </mxGeometry>
        </mxCell>
        <mxCell id="TLY3jkLE9alik_qP_1Jx-11" value="" style="swimlane;fontStyle=0;childLayout=stackLayout;horizontal=1;startSize=26;fillColor=none;horizontalStack=0;resizeParent=1;resizeParentMax=0;resizeLast=0;collapsible=1;marginBottom=0;whiteSpace=wrap;html=1;" vertex="1" parent="WIyWlLk6GJQsqaUBKTNV-1">
          <mxGeometry x="40" y="400" width="120" height="50" as="geometry">
            <mxRectangle x="190" y="700" width="50" height="40" as="alternateBounds" />
          </mxGeometry>
        </mxCell>
        <mxCell id="TLY3jkLE9alik_qP_1Jx-12" value="delivery_date" style="text;strokeColor=none;fillColor=none;align=center;verticalAlign=top;spacingLeft=4;spacingRight=4;overflow=hidden;rotatable=0;points=[[0,0.5],[1,0.5]];portConstraint=eastwest;whiteSpace=wrap;html=1;" vertex="1" parent="TLY3jkLE9alik_qP_1Jx-11">
          <mxGeometry y="26" width="120" height="24" as="geometry" />
        </mxCell>
        <mxCell id="TLY3jkLE9alik_qP_1Jx-13" value="" style="endArrow=none;dashed=1;html=1;dashPattern=1 3;strokeWidth=2;rounded=0;exitX=1;exitY=0.5;exitDx=0;exitDy=0;" edge="1" parent="WIyWlLk6GJQsqaUBKTNV-1" source="TLY3jkLE9alik_qP_1Jx-11">
          <mxGeometry width="50" height="50" relative="1" as="geometry">
            <mxPoint x="180" y="428.17" as="sourcePoint" />
            <mxPoint x="270" y="425" as="targetPoint" />
          </mxGeometry>
        </mxCell>
        <mxCell id="TLY3jkLE9alik_qP_1Jx-14" value="" style="swimlane;fontStyle=0;childLayout=stackLayout;horizontal=1;startSize=26;fillColor=none;horizontalStack=0;resizeParent=1;resizeParentMax=0;resizeLast=0;collapsible=1;marginBottom=0;whiteSpace=wrap;html=1;" vertex="1" parent="WIyWlLk6GJQsqaUBKTNV-1">
          <mxGeometry x="40" y="179" width="120" height="50" as="geometry">
            <mxRectangle x="190" y="700" width="50" height="40" as="alternateBounds" />
          </mxGeometry>
        </mxCell>
        <mxCell id="TLY3jkLE9alik_qP_1Jx-15" value="placement_date" style="text;strokeColor=none;fillColor=none;align=center;verticalAlign=top;spacingLeft=4;spacingRight=4;overflow=hidden;rotatable=0;points=[[0,0.5],[1,0.5]];portConstraint=eastwest;whiteSpace=wrap;html=1;" vertex="1" parent="TLY3jkLE9alik_qP_1Jx-14">
          <mxGeometry y="26" width="120" height="24" as="geometry" />
        </mxCell>
        <mxCell id="TLY3jkLE9alik_qP_1Jx-16" value="" style="endArrow=none;dashed=1;html=1;dashPattern=1 3;strokeWidth=2;rounded=0;exitX=1;exitY=0.5;exitDx=0;exitDy=0;" edge="1" parent="WIyWlLk6GJQsqaUBKTNV-1">
          <mxGeometry width="50" height="50" relative="1" as="geometry">
            <mxPoint x="170" y="203.87" as="sourcePoint" />
            <mxPoint x="270" y="203.87" as="targetPoint" />
            <Array as="points">
              <mxPoint x="220" y="203.87" />
            </Array>
          </mxGeometry>
        </mxCell>
      </root>
    </mxGraphModel>
  </diagram>
</mxfile>
